<?xml version="1.0" encoding="UTF-8" standalone="no"?>
<!-- Created with Inkscape (http://www.inkscape.org/) -->

<svg
   version="1.1"
   id="svg2"
   xml:space="preserve"
   width="594.81335"
   height="373.16"
   viewBox="0 0 594.81335 373.16"
   sodipodi:docname="2011.i402.063.Electricity and lighting flat background.eps"
   xmlns:inkscape="http://www.inkscape.org/namespaces/inkscape"
   xmlns:sodipodi="http://sodipodi.sourceforge.net/DTD/sodipodi-0.dtd"
   xmlns="http://www.w3.org/2000/svg"
   xmlns:svg="http://www.w3.org/2000/svg"><defs
     id="defs6" /><sodipodi:namedview
     id="namedview4"
     pagecolor="#ffffff"
     bordercolor="#666666"
     borderopacity="1.0"
     inkscape:pageshadow="2"
     inkscape:pageopacity="0.0"
     inkscape:pagecheckerboard="0" /><g
     id="g8"
     inkscape:groupmode="layer"
     inkscape:label="ink_ext_XXXXXX"
     transform="matrix(1.3333333,0,0,-1.3333333,0,373.16)"><g
       id="g10"
       transform="scale(0.1)"><path
         d="m 3416.52,1860.22 c -3.95,-93.44 -82.96,-165.75 -176.34,-161.71 -93.49,4.07 -165.94,82.97 -162.1,176.49 4.24,93.41 83.2,165.68 176.55,161.76 93.44,-4.05 165.96,-83.02 161.89,-176.54"
         style="fill:#cbe9f4;fill-opacity:1;fill-rule:nonzero;stroke:none"
         id="path12" /><path
         d="m 3228.62,1428.73 c -242.34,10.45 -430.38,215.42 -419.88,457.85 10.51,242.32 215.41,430.31 457.81,419.92 242.32,-10.51 430.55,-215.44 419.91,-457.86 -10.36,-242.31 -215.28,-430.36 -457.84,-419.91 z m 607.7,532.93 c -53.3,47.49 -81.54,128.19 -70.96,196.61 6.6,42.8 126.9,117.26 126.9,117.26 l -179.48,195.04 c 0,0 -84.17,-114.16 -127.25,-117.09 -65.89,-4.82 -140.33,29.02 -180.4,84.02 -25.5,34.99 7.44,172.59 7.44,172.59 l -265.1,11.45 c 0,0 20.82,-140.11 -7.41,-172.58 -39.05,-44.98 -108.83,-67.83 -165.73,-56.42 -42.39,8.43 -111.01,132.15 -111.01,132.15 l -203.11,-170.55 c 0,0 109.95,-89.13 111.12,-132.19 1.76,-72.47 -36.79,-152.29 -97.5,-195.54 -35.23,-25.19 -172.76,9.59 -172.76,9.59 l -14.82,-264.92 c 0,0 140.12,19.22 172.23,-9.45 53.32,-47.67 81.65,-128.37 71.02,-196.71 -6.57,-42.72 -127.05,-117.15 -127.05,-117.15 l 179.51,-194.99 c 0,0 84.12,113.93 127.28,116.97 65.72,4.7 140.46,-29.19 180.54,-84 25.45,-35.02 -7.32,-172.53 -7.32,-172.53 l 264.92,-11.45 c 0,0 -20.92,140.06 7.28,172.56 39.18,44.86 109.04,67.84 166.03,56.4 42.2,-8.59 110.98,-132.23 110.98,-132.23 l 203,170.61 c 0,0 -109.86,89.13 -111.17,132.23 -1.67,72.35 36.75,152.17 97.51,195.56 35.25,24.93 172.86,-9.81 172.86,-9.81 l 14.67,264.89 c 0,0 -139.99,-18.99 -172.22,9.68"
         style="fill:#cbe9f4;fill-opacity:1;fill-rule:nonzero;stroke:none"
         id="path14" /><path
         d="m 3582.99,1847.11 c -7.89,-185.23 -164.61,-328.98 -349.92,-320.87 -185.13,8.03 -328.85,164.58 -320.79,349.74 7.88,185.43 164.58,329 349.79,321.12 185.34,-8.08 328.97,-164.73 320.92,-349.99"
         style="fill:#cbe9f4;fill-opacity:1;fill-rule:nonzero;stroke:none"
         id="path16" /><path
         d="M 1132.95,936.211 C 1129,842.781 1049.99,770.469 956.609,774.512 863.113,778.582 790.664,857.48 794.512,951 c 4.25,93.41 83.203,165.68 176.543,161.76 93.435,-4.05 165.965,-83.01 161.895,-176.549"
         style="fill:#cbe9f4;fill-opacity:1;fill-rule:nonzero;stroke:none"
         id="path18" /><path
         d="M 945.051,504.742 C 702.711,515.191 514.68,720.148 525.176,962.582 535.684,1204.91 740.582,1392.89 982.984,1382.5 1225.3,1372 1413.54,1167.05 1402.9,924.648 1392.54,682.34 1187.61,494.281 945.051,504.742 Z m 607.699,532.918 c -53.3,47.5 -81.55,128.19 -70.96,196.61 6.6,42.8 126.9,117.26 126.9,117.26 l -179.48,195.04 c 0,0 -84.17,-114.15 -127.25,-117.09 -65.89,-4.82 -140.33,29.02 -180.4,84.02 -25.5,35 7.44,172.59 7.44,172.59 l -265.105,11.46 c 0,0 20.828,-140.12 -7.407,-172.59 -39.054,-44.98 -108.828,-67.84 -165.734,-56.42 -42.375,8.44 -111.004,132.15 -111.004,132.15 L 376.645,1430.14 c 0,0 109.941,-89.13 111.121,-132.19 1.75,-72.47 -36.789,-152.28 -97.512,-195.53 -35.227,-25.19 -172.75,9.59 -172.75,9.59 L 202.688,847.082 c 0,0 140.105,19.219 172.218,-9.441 53.317,-47.68 81.653,-128.379 71.024,-196.719 C 439.359,598.199 318.887,523.77 318.887,523.77 L 498.391,328.781 c 0,0 84.125,113.938 127.277,116.981 65.723,4.687 140.461,-29.192 180.543,-84.012 25.449,-35.02 -7.32,-172.531 -7.32,-172.531 L 1063.82,177.77 c 0,0 -20.93,140.07 7.27,172.57 39.18,44.859 109.04,67.84 166.03,56.39 42.2,-8.589 110.99,-132.218 110.99,-132.218 l 202.99,170.597 c 0,0 -109.86,89.133 -111.17,132.243 -1.67,72.347 36.75,152.16 97.51,195.546 35.26,24.942 172.86,-9.808 172.86,-9.808 l 14.67,264.89 c 0,0 -139.98,-18.98 -172.22,9.68"
         style="fill:#cbe9f4;fill-opacity:1;fill-rule:nonzero;stroke:none"
         id="path20" /><path
         d="M 1299.42,923.121 C 1291.53,737.871 1134.81,594.129 949.496,602.242 764.371,610.27 620.652,766.82 628.707,951.98 c 7.887,185.44 164.578,329 349.793,321.13 185.34,-8.09 328.98,-164.74 320.92,-349.989"
         style="fill:#cbe9f4;fill-opacity:1;fill-rule:nonzero;stroke:none"
         id="path22" /><path
         d="m 2422.69,256.359 c 99.49,81.141 118.9,240.383 43.49,355.539 -60.83,92.891 -164.79,128.692 -254.93,96.582 -7.3,14.739 -15.37,29.161 -24.53,43.122 -111.74,170.769 -321.79,211.66 -469.14,91.359 -72.18,-58.91 -115.87,-145.602 -128.56,-238.781 -35.66,1.691 -71.6,-9.129 -102.18,-34.09 -73.43,-59.93 -87.82,-177.469 -32.09,-262.551 55.68,-85.137 160.37,-105.539 233.77,-45.609 1.44,1.16 2.63,2.429 3.98,3.629 116.96,-127.071 298.29,-148.129 429.78,-40.829 13.13,10.731 25.27,22.411 36.52,34.852 78.09,-63.25 184.45,-68.082 263.89,-3.223"
         style="fill:#ffe7e7;fill-opacity:1;fill-rule:nonzero;stroke:none"
         id="path24" /><path
         d="m 1613.76,131.07 c 139.02,113.461 162.71,341.352 53.01,508.899 -88.49,135.179 -236.76,189.711 -363.75,146.363 -10.73,21.328 -22.55,42.297 -35.84,62.629 C 1104.6,1097.39 805.801,1162.43 599.824,994.301 498.945,911.949 439.117,788.84 423.438,655.559 372.82,659.09 322.152,644.609 279.402,609.73 176.723,525.961 159.23,357.73 240.277,233.949 321.305,110.09 470.227,77.6289 572.828,161.422 c 2.012,1.609 3.656,3.379 5.539,5.058 168.883,-185.8784 575.263,-55.531 759.043,94.45 18.37,14.992 -113.45,-134.731 -97.83,-117.18 112.24,-93.1289 263.17,-103.3008 374.18,-12.68"
         style="fill:#ffe7e7;fill-opacity:1;fill-rule:nonzero;stroke:none"
         id="path26" /><path
         d="m 3576.02,172.422 c 139.01,113.457 162.7,341.328 52.99,508.887 -88.48,135.183 -236.75,189.711 -363.74,146.363 -10.73,21.34 -22.55,42.289 -35.84,62.617 -162.58,248.421 -461.37,313.481 -667.35,145.331 -100.89,-82.339 -160.72,-205.429 -176.39,-338.722 -50.62,3.512 -101.29,-10.949 -144.04,-45.828 -102.68,-83.781 -120.17,-251.988 -39.12,-375.789 81.03,-123.851 229.94,-156.301 332.55,-72.531 2.01,1.629 3.65,3.41 5.55,5.082 168.87,-185.9023 575.25,-55.551 759.02,94.438 18.38,14.992 -113.45,-134.731 -97.81,-117.18 C 3314.07,91.9492 3465,81.8008 3576.02,172.422"
         style="fill:#ffe7e7;fill-opacity:1;fill-rule:nonzero;stroke:none"
         id="path28" /><path
         d="m 4271.26,119.18 c 96.51,78.699 115.33,233.172 42.2,344.871 -59.01,90.109 -159.85,124.84 -247.29,93.699 -7.1,14.289 -14.92,28.289 -23.81,41.832 -108.38,165.637 -312.14,205.309 -455.07,88.629 -70.02,-57.152 -112.4,-141.25 -124.7,-231.629 -34.58,1.648 -69.46,-8.863 -99.12,-33.082 -71.23,-58.148 -85.19,-172.141 -31.14,-254.668 54.02,-82.6015 155.57,-102.3711 226.76,-44.262 1.41,1.129 2.58,2.371 3.87,3.52 113.46,-123.25016 289.35,-143.6916 416.89,-39.59 12.76,10.4102 24.53,21.742 35.43,33.801 75.76,-61.3596 178.93,-66.0393 255.98,-3.121"
         style="fill:#ffe7e7;fill-opacity:1;fill-rule:nonzero;stroke:none"
         id="path30" /><path
         d="m 2339.97,2773.32 -4.76,15.85 c -0.28,0.8 36.87,10.39 37.06,9.45 l 2.52,-16.42 c -0.18,0.93 -34.96,-8.02 -34.82,-8.88"
         style="fill:#ffb502;fill-opacity:1;fill-rule:nonzero;stroke:none"
         id="path32" /><path
         d="m 2291.57,2750.55 -8.42,14.08 c 0,-0.02 8.34,5.02 16.89,9.68 8.69,4.23 17.56,8.18 17.56,8.18 l 5.94,-15.42 c 0,0 -8.19,-3.63 -16.28,-7.52 -7.95,-4.34 -15.69,-9 -15.69,-9"
         style="fill:#ffb502;fill-opacity:1;fill-rule:nonzero;stroke:none"
         id="path34" /><path
         d="m 2249.91,2715.93 -11.53,11.36 c -1.01,1.15 28.54,27.17 29.02,26.55 l 9.59,-13.32 c -0.48,0.68 -28.02,-23.48 -27.08,-24.59"
         style="fill:#ffb502;fill-opacity:1;fill-rule:nonzero;stroke:none"
         id="path36" /><path
         d="m 2219.78,2669.73 -13.88,7.68 c 0,0.07 0.73,2.51 2.55,5.83 1.8,3.29 4.24,7.72 6.61,12.13 2.31,4.58 5.22,8.62 7.39,11.67 2.18,3.05 3.63,5.14 3.63,5.14 l 12.46,-10.23 c 0,0 -1.32,-1.94 -3.34,-4.76 -2.04,-2.83 -4.78,-6.56 -6.85,-10.83 -2.21,-4.07 -4.46,-8.22 -6.12,-11.28 -1.74,-3.1 -2.45,-5.35 -2.45,-5.35"
         style="fill:#ffb502;fill-opacity:1;fill-rule:nonzero;stroke:none"
         id="path38" /><path
         d="m 2204.99,2615.47 -15.19,3.59 c 1.95,11.94 4,24.05 7.51,35.59 l 1.23,4.32 14.49,-6.41 -1.16,-4.01 c -3.26,-10.73 -5.1,-21.92 -6.88,-33.08"
         style="fill:#ffb502;fill-opacity:1;fill-rule:nonzero;stroke:none"
         id="path40" /><path
         d="m 2198.55,2557.83 -15.44,1.66 c 0,0 0.91,9.85 1.84,19.83 1.03,9.92 2.14,19.84 2.14,19.84 l 15.4,-2.2 c 0,0 -1.08,-9.71 -2.12,-19.5 -0.95,-9.82 -1.82,-19.63 -1.82,-19.63"
         style="fill:#ffb502;fill-opacity:1;fill-rule:nonzero;stroke:none"
         id="path42" /><path
         d="m 2194.19,2499.13 -15.47,1.26 2.84,39.66 15.44,-1.45 -2.81,-39.47"
         style="fill:#ffb502;fill-opacity:1;fill-rule:nonzero;stroke:none"
         id="path44" /><path
         d="m 2190.27,2440.16 -15.42,1.3 2.56,39.55 15.48,-1.28 -2.62,-39.57"
         style="fill:#ffb502;fill-opacity:1;fill-rule:nonzero;stroke:none"
         id="path46" /><path
         d="m 2186.01,2380.44 -15.34,2.92 2.9,38.75 15.41,-1.34 -2.97,-40.33"
         style="fill:#ffb502;fill-opacity:1;fill-rule:nonzero;stroke:none"
         id="path48" /><path
         d="m 2180.49,2319.38 -14.83,7.29 3.51,38.04 15.18,-4.37 -3.86,-40.96"
         style="fill:#ffb502;fill-opacity:1;fill-rule:nonzero;stroke:none"
         id="path50" /><path
         d="m 2173.22,2258.74 -14.07,11.48 4.57,37.87 14.62,-8.68 c 0,0 -1.2,-10.17 -2.43,-20.43 -1.34,-10.1 -2.69,-20.24 -2.69,-20.24"
         style="fill:#ffb502;fill-opacity:1;fill-rule:nonzero;stroke:none"
         id="path52" /><path
         d="m 2163.27,2198.89 -12.98,15.23 c 0,0 1.69,9.36 3.37,18.74 1.41,9.47 2.89,18.86 2.89,18.86 l 13.73,-12.75 c 0,0 -1.61,-10.08 -3.28,-20.08 -1.8,-10 -3.73,-20 -3.73,-20"
         style="fill:#ffb502;fill-opacity:1;fill-rule:nonzero;stroke:none"
         id="path54" /><path
         d="m 2149.71,2140.39 -11.51,18.33 c 0,0 2.25,9.25 4.53,18.46 1.99,9.31 4.03,18.63 4.03,18.63 l 12.49,-16.27 c 0,0 -2.26,-9.88 -4.47,-19.7 -2.55,-9.67 -5.07,-19.45 -5.07,-19.45"
         style="fill:#ffb502;fill-opacity:1;fill-rule:nonzero;stroke:none"
         id="path56" /><path
         d="m 2130.63,2084.3 -9.68,20.71 c 0,0 3.6,8.75 6.47,17.75 3.23,8.9 5.77,18.1 5.77,18.1 l 10.88,-19.19 c 0,0 -2.78,-9.61 -6.31,-18.82 -3.22,-9.47 -7.13,-18.55 -7.13,-18.55"
         style="fill:#ffb502;fill-opacity:1;fill-rule:nonzero;stroke:none"
         id="path58" /><path
         d="m 2103.43,2032.55 -7.54,22.52 c 0,0 4.81,7.99 9.62,16.02 4.13,8.43 8.32,16.86 8.32,16.86 l 9,-21.39 c 0,0 -4.52,-8.73 -9.03,-17.44 -5.19,-8.32 -10.37,-16.57 -10.37,-16.57"
         style="fill:#ffb502;fill-opacity:1;fill-rule:nonzero;stroke:none"
         id="path60" /><path
         d="m 2063.25,1991.64 -4.98,23.89 c 0,0 7.28,5.5 14.22,11.42 6.32,6.75 12.86,13.23 12.58,13.46 l 6.76,-23.04 c 0,0 -1.49,-1.92 -4.12,-4.46 -2.53,-2.56 -5.96,-5.99 -9.29,-9.41 -7.46,-6.12 -15.17,-11.86 -15.17,-11.86"
         style="fill:#ffb502;fill-opacity:1;fill-rule:nonzero;stroke:none"
         id="path62" /><path
         d="m 2010.12,1974.3 -2,24.54 c 0.04,-0.51 8.89,1.07 17.68,2.45 8.59,2.42 16.97,5.67 16.97,5.67 l 4.02,-24.13 c 0,0 -8.9,-3.37 -17.99,-5.85 -9.32,-1.44 -18.61,-3.16 -18.68,-2.68"
         style="fill:#ffb502;fill-opacity:1;fill-rule:nonzero;stroke:none"
         id="path64" /><path
         d="m 1955.49,1985.26 1,24.39 c 0,0 8.31,-3.51 16.65,-6.92 8.77,-1.82 17.51,-3.67 17.51,-3.67 l 1.01,-24.44 c 0,0 -9.26,1.78 -18.54,3.69 -8.85,3.48 -17.63,6.95 -17.63,6.95"
         style="fill:#ffb502;fill-opacity:1;fill-rule:nonzero;stroke:none"
         id="path66" /><path
         d="m 1911.44,2021.56 3.68,23.45 c 0,0 5.95,-7.08 12.43,-13.75 3.43,-3.05 6.9,-6.12 9.49,-8.35 2.56,-2.33 4.41,-3.67 4.41,-3.67 l -2,-24.17 c 0,0 -1.89,1.39 -4.64,3.77 -2.73,2.36 -6.41,5.49 -10.08,8.59 -6.9,6.81 -13.28,14.09 -13.29,14.13"
         style="fill:#ffb502;fill-opacity:1;fill-rule:nonzero;stroke:none"
         id="path68" /><path
         d="m 1878.74,2069.68 5.98,22.1 c 0,0 4.24,-8.4 9.29,-16.34 4.62,-8.24 10.16,-15.76 10.16,-15.76 l -4.47,-23.11 c 0,0 -5.9,7.78 -10.91,16.31 -5.46,8.07 -10.05,16.8 -10.05,16.8"
         style="fill:#ffb502;fill-opacity:1;fill-rule:nonzero;stroke:none"
         id="path70" /><path
         d="m 1852.77,2122.8 8.13,20.06 c 0,0 3.71,-8.74 7.44,-17.45 3.99,-8.6 7.92,-17.18 7.92,-17.18 l -6.67,-21.46 c 0,0 -4.32,8.91 -8.67,17.82 -4.25,9.02 -8.15,18.21 -8.15,18.21"
         style="fill:#ffb502;fill-opacity:1;fill-rule:nonzero;stroke:none"
         id="path72" /><path
         d="m 1830.56,2178.52 10.07,17.05 c 0,0 3.26,-8.88 6.49,-17.81 3.44,-8.85 6.87,-17.67 6.87,-17.67 l -8.82,-19.16 c 0,0 -3.73,9.32 -7.48,18.65 -3.53,9.51 -7.13,18.94 -7.13,18.94"
         style="fill:#ffb502;fill-opacity:1;fill-rule:nonzero;stroke:none"
         id="path74" /><path
         d="m 1810.14,2235.67 11.76,13.29 12.47,-35.87 -10.65,-15.89 -13.58,38.47"
         style="fill:#ffb502;fill-opacity:1;fill-rule:nonzero;stroke:none"
         id="path76" /><path
         d="m 1790.1,2293.23 13.26,9.25 12.49,-35.89 -12.27,-11.98 -13.48,38.62"
         style="fill:#ffb502;fill-opacity:1;fill-rule:nonzero;stroke:none"
         id="path78" /><path
         d="m 1769.29,2349.8 14.26,6.39 c 0,0 3.5,-9.19 7.05,-18.35 3.32,-8.93 6.57,-17.84 6.57,-17.84 l -13.77,-7.83 c 0,0 -3.51,9.6 -7.06,19.18 -3.51,9.28 -7.05,18.45 -7.05,18.45"
         style="fill:#ffb502;fill-opacity:1;fill-rule:nonzero;stroke:none"
         id="path80" /><path
         d="m 1746.68,2403.22 13.81,7.37 c 0,0 4.16,-9.04 8.23,-18.1 3.84,-9.17 7.66,-18.34 7.66,-18.34 l -14.16,-6.58 c 0,0 -3.79,9 -7.56,18.02 -4,8.8 -7.98,17.63 -7.98,17.63"
         style="fill:#ffb502;fill-opacity:1;fill-rule:nonzero;stroke:none"
         id="path82" /><path
         d="m 1719.91,2453.93 13.02,9.01 c 0,0 5.03,-8.56 10.03,-17.15 4.55,-8.84 9.13,-17.68 9.13,-17.68 l -13.64,-7.82 c 0,0 -4.43,8.54 -8.83,17.13 -4.85,8.27 -9.71,16.51 -9.71,16.51"
         style="fill:#ffb502;fill-opacity:1;fill-rule:nonzero;stroke:none"
         id="path84" /><path
         d="m 1687,2499.36 11.13,11.49 c 0,0 6.32,-7.7 12.59,-15.38 3.26,-3.79 6.05,-7.91 8.11,-10.99 2.14,-3.14 3.56,-5.17 3.56,-5.17 l -12.54,-9.71 c 0,0 -1.33,1.88 -3.35,4.88 -1.94,2.93 -4.62,6.88 -7.65,10.39 -5.95,7.26 -11.85,14.49 -11.85,14.49"
         style="fill:#ffb502;fill-opacity:1;fill-rule:nonzero;stroke:none"
         id="path86" /><path
         d="m 1645.33,2533.83 7.38,14.61 c 0.68,1.02 32.49,-22.79 31.71,-23.74 l -10.17,-12.49 c 0.63,0.98 -28.41,22.68 -28.92,21.62"
         style="fill:#ffb502;fill-opacity:1;fill-rule:nonzero;stroke:none"
         id="path88" /><path
         d="m 1596.04,2551.82 2.01,16.4 c 0,0 9.58,-2.15 19.1,-4.33 4.8,-0.73 9.2,-3.19 12.73,-4.4 3.37,-1.42 5.68,-2.31 5.68,-2.31 l -5.79,-15.41 c 0,0 -2.01,0.87 -5.12,2.11 -3.1,1.05 -7.05,3.35 -11.44,3.95 -8.56,2.01 -17.17,3.99 -17.17,3.99"
         style="fill:#ffb502;fill-opacity:1;fill-rule:nonzero;stroke:none"
         id="path90" /><path
         d="m 1543.84,2550.28 -3.25,16.27 c 0.41,1.14 38.43,4.46 38.56,2.99 l -0.31,-16.58 c 0,0 -2.17,0.13 -5.51,0.37 -3.33,-0.24 -7.77,-0.6 -12.18,-1 -4.41,-0.32 -8.81,-0.69 -12.14,-0.99 -2.41,-0.34 -5.4,-1.11 -5.17,-1.06"
         style="fill:#ffb502;fill-opacity:1;fill-rule:nonzero;stroke:none"
         id="path92" /><path
         d="m 1497.02,2528.75 -9.48,13.21 c 0.19,-0.35 7.58,6.93 16.61,11.31 8.48,5.37 18.41,8.32 18.41,8.32 l 4.38,-15.94 c 0,0 -7.96,-2.35 -15.5,-7.05 -7.86,-3.74 -14.19,-10.21 -14.42,-9.85"
         style="fill:#ffb502;fill-opacity:1;fill-rule:nonzero;stroke:none"
         id="path94" /><path
         d="m 1464.24,2486.37 -13.6,8.15 c 0,0 1.16,2.26 2.89,5.65 1.99,3.24 4.73,7.59 7.36,11.87 5.64,8.49 12.3,16.25 12.3,16.25 l 11.23,-11.48 c 0,0 -5.83,-6.81 -10.87,-14.46 -2.48,-3.89 -4.88,-7.79 -6.71,-10.76 -1.58,-3.12 -2.6,-5.22 -2.6,-5.22"
         style="fill:#ffb502;fill-opacity:1;fill-rule:nonzero;stroke:none"
         id="path96" /><path
         d="m 1444.29,2433.53 -14.82,4.79 c -0.05,0 2.36,9.82 5.84,19.26 2.98,9.6 7.04,18.93 7.04,18.93 l 14.19,-6.83 c 0,0 -3.79,-8.59 -6.62,-17.79 -3.32,-8.9 -5.63,-18.36 -5.63,-18.36"
         style="fill:#ffb502;fill-opacity:1;fill-rule:nonzero;stroke:none"
         id="path98" /><path
         d="m 1432.12,2376.9 -15.24,3.09 c 0,0 1.46,9.86 3.58,19.69 1.8,9.83 4.18,19.58 4.18,19.58 l 15.01,-4.06 c 0,0 -2.23,-9.43 -4.06,-19.02 -1.96,-9.56 -3.47,-19.28 -3.47,-19.28"
         style="fill:#ffb502;fill-opacity:1;fill-rule:nonzero;stroke:none"
         id="path100" /><path
         d="m 1423.86,2318.96 -15.39,2.25 5.35,39.49 15.31,-2.69 -5.27,-39.05"
         style="fill:#ffb502;fill-opacity:1;fill-rule:nonzero;stroke:none"
         id="path102" /><path
         d="m 1417.09,2260.39 -15.39,2.13 4.46,39.44 15.4,-2.16 -4.47,-39.41"
         style="fill:#ffb502;fill-opacity:1;fill-rule:nonzero;stroke:none"
         id="path104" /><path
         d="m 1409.82,2201.63 -15.33,2.54 4.95,39.13 15.37,-2.18 -4.99,-39.49"
         style="fill:#ffb502;fill-opacity:1;fill-rule:nonzero;stroke:none"
         id="path106" /><path
         d="m 1400.29,2142.97 -15.13,3.52 c 0,0 1.7,9.63 3.51,19.22 1.55,9.7 3.1,19.4 3.1,19.4 l 15.28,-2.78 c 0,0 -1.59,-9.84 -3.17,-19.7 -1.81,-9.81 -3.59,-19.66 -3.59,-19.66"
         style="fill:#ffb502;fill-opacity:1;fill-rule:nonzero;stroke:none"
         id="path108" /><path
         d="m 1386.01,2085.01 -14.69,5.32 c 0,0 2.68,9.27 5.34,18.58 2.29,9.45 4.59,18.86 4.59,18.86 l 15.06,-3.96 c 0,0 -2.38,-9.74 -4.73,-19.51 -2.79,-9.64 -5.57,-19.29 -5.57,-19.29"
         style="fill:#ffb502;fill-opacity:1;fill-rule:nonzero;stroke:none"
         id="path110" /><path
         d="m 1363.31,2029.45 -13.4,8.39 c 0,0 4.17,8.55 8.24,17 3.59,8.86 7.14,17.67 7.14,17.67 l 14.43,-6.2 c 0,0 -3.75,-9.36 -7.55,-18.7 -4.43,-9.07 -8.86,-18.16 -8.86,-18.16"
         style="fill:#ffb502;fill-opacity:1;fill-rule:nonzero;stroke:none"
         id="path112" /><path
         d="m 1328.75,1981.32 -11.34,11.41 12.3,14.61 10.9,14.77 12.65,-9.62 -11.69,-15.96 -12.82,-15.21"
         style="fill:#ffb502;fill-opacity:1;fill-rule:nonzero;stroke:none"
         id="path114" /><path
         d="m 1286.95,1940.82 -9.27,13.34 c 0,0 7.27,5.64 13.97,12 6.8,6.36 13.34,13.11 13.34,13.06 l 10.78,-11.97 c 0,0 -6.78,-6.98 -13.96,-13.67 -7.07,-6.76 -14.86,-12.76 -14.86,-12.76"
         style="fill:#ffb502;fill-opacity:1;fill-rule:nonzero;stroke:none"
         id="path116" /><path
         d="m 1235.85,1912.39 -4.27,16.01 c 0,0 8.33,2.4 16.24,6.48 7.87,3.96 15.51,8.8 15.51,8.8 l 8.11,-14.2 c 0,0 -8.31,-5.33 -17.12,-9.78 -8.87,-4.46 -18.47,-7.31 -18.47,-7.31"
         style="fill:#ffb502;fill-opacity:1;fill-rule:nonzero;stroke:none"
         id="path118" /><path
         d="m 1176.69,1914.56 5.6,15.42 c 0,0 7.85,-3.22 16.15,-4.6 8.34,-1.17 16.83,-0.32 16.78,-0.34 l 1.44,-16.58 c 0,0 -10.09,-1.01 -20.26,0.44 -10.15,1.62 -19.71,5.66 -19.71,5.66"
         style="fill:#ffb502;fill-opacity:1;fill-rule:nonzero;stroke:none"
         id="path120" /><path
         d="m 1130.18,1953.04 12.01,10.39 c 0,0 5.47,-7.45 11.97,-13.73 6.25,-6.45 13.48,-11.45 13.48,-11.45 l -8.42,-13.87 c 0,0 -8.5,5.88 -15.64,13.23 -7.35,7.19 -13.4,15.43 -13.4,15.43"
         style="fill:#ffb502;fill-opacity:1;fill-rule:nonzero;stroke:none"
         id="path122" /><path
         d="m 1100.91,2005.71 14.15,6.7 c -0.73,-0.45 16.19,-34.43 17.01,-33.85 l -12.97,-9.02 c -0.94,-0.5 -18.99,35.8 -18.19,36.17"
         style="fill:#ffb502;fill-opacity:1;fill-rule:nonzero;stroke:none"
         id="path124" /><path
         d="m 1082.36,2062.84 14.98,4.21 c 0,0 2.27,-9.44 5.05,-18.74 2.79,-9.21 5.91,-18.38 5.91,-18.38 l -14.48,-5.73 c 0,0 -3.31,9.52 -6.22,19.19 -2.89,9.67 -5.24,19.45 -5.24,19.45"
         style="fill:#ffb502;fill-opacity:1;fill-rule:nonzero;stroke:none"
         id="path126" /><path
         d="m 1071.46,2121.89 15.39,2.16 c 0,0 1.15,-9.68 2.78,-19.29 1.75,-9.61 3.46,-19.13 3.46,-19.13 l -15.13,-3.5 c 0,0 -1.76,9.93 -3.62,19.85 -1.68,9.93 -2.88,19.91 -2.88,19.91"
         style="fill:#ffb502;fill-opacity:1;fill-rule:nonzero;stroke:none"
         id="path128" /><path
         d="m 1655.84,117.289 c 80.28,65.453 98.01,190.762 39.74,279.75 -47.01,71.813 -129.14,98.02 -201.27,71.211 -5.6,11.43 -11.81,22.59 -18.88,33.379 -86.36,131.98 -252.76,160.269 -371.64,63.223 -58.25,-47.543 -94.23,-116.36 -105.677,-189.692 -28.324,0.68 -57.054,-8.48 -81.726,-28.609 -59.246,-48.352 -72.395,-140.832 -29.324,-206.602 43.035,-65.8201 125.977,-79.9099 185.187,-31.57 1.17,0.93 2.13,1.961 3.21,2.922 91.16,-97.6018 235.01,-110.851781 341.09,-24.2619 10.6,8.6601 20.42,18.0199 29.55,27.9999 61.17,-48.207 145.65,-50.0976 209.74,2.25"
         style="fill:#ffd5d6;fill-opacity:1;fill-rule:nonzero;stroke:none"
         id="path130" /><path
         d="m 3718.07,135.859 c 85.24,69.52 101.86,205.95 37.26,304.602 -52.1,79.59 -141.19,110.269 -218.4,82.769 -6.28,12.61 -13.18,24.989 -21.01,36.942 -95.74,146.297 -275.71,181.34 -401.96,78.258 -61.86,-50.469 -99.27,-124.739 -110.13,-204.551 -30.57,1.441 -61.36,-7.84 -87.55,-29.231 -62.92,-51.339 -75.25,-152.046 -27.51,-224.929 47.71,-72.949 137.4,-90.4104 200.27,-39.09 1.25,0.992 2.28,2.09 3.42,3.113 100.22,-108.8631 255.59,-126.9022 368.23,-34.972 11.24,9.199 21.65,19.199 31.29,29.851 66.92,-54.1913 158.03,-58.3202 226.09,-2.762"
         style="fill:#ffd5d6;fill-opacity:1;fill-rule:nonzero;stroke:none"
         id="path132" /><path
         d="M 4461.07,151.801 C 4461.07,67.9609 3462.44,0 2230.54,0 998.645,0 0,67.9609 0,151.801 c 0,83.847 998.645,151.808 2230.54,151.808 1231.9,0 2230.53,-67.961 2230.53,-151.808"
         style="fill:#f7c9cc;fill-opacity:1;fill-rule:nonzero;stroke:none"
         id="path134" /><path
         d="m 413.414,1872.25 9.145,8.55 36.507,-38.67 c 10.883,-11.52 29.125,-12.1 40.696,-1.31 l 31.156,29.07 c 8.102,7.57 18.609,11.47 29.734,11.11 11.063,-0.43 21.317,-5.11 28.836,-13.21 l 24.012,-25.83 c 5.289,-5.7 12.531,-8.99 20.348,-9.2 7.8,-0.25 15.16,2.66 20.804,8 l 27.227,26.19 c 8.434,8 19.41,12.13 30.902,11.47 11.383,-0.62 22.176,-5.95 29.426,-14.68 l 14.887,-17.66 c 5.469,-6.49 13.367,-10.21 21.769,-10.28 8.496,-0.08 16.524,3.5 22.094,9.82 l 33.027,37.68 9.371,-8.25 -32.988,-37.71 c -7.988,-9.06 -19.512,-14.17 -31.637,-14.12 -12.066,0.18 -23.425,5.57 -31.218,14.83 l -14.785,17.67 c -5.239,6.15 -12.512,9.77 -20.602,10.24 -8.055,0.38 -15.723,-2.48 -21.566,-8.02 l -27.301,-26.16 c -8,-7.8 -18.586,-11.85 -29.766,-11.55 -11.242,0.34 -21.59,4.99 -29.156,13.19 l -23.984,25.82 c -5.297,5.64 -12.461,8.93 -20.149,9.19 -7.726,0.3 -15.058,-2.43 -20.707,-7.7 l -31.152,-29.05 c -16.598,-15.47 -42.801,-14.63 -58.332,1.86 l -36.598,38.71"
         style="fill:#464f72;fill-opacity:1;fill-rule:nonzero;stroke:none"
         id="path136" /><path
         d="m 3091.11,1853.57 c 3.64,432.81 -344.4,786.52 -777.08,790.11 -432.73,3.53 -786.42,-344.33 -790.11,-777.05 -1.94,-235.47 174.96,-392.83 263.62,-592.41 67.57,-151.99 64.76,-665.458 64.76,-665.458 l 889.63,-7.371 c 0,0 5.64,513.409 75.67,664.259 91.94,198.06 271.52,352.42 273.51,587.92"
         style="fill:#ffb502;fill-opacity:1;fill-rule:nonzero;stroke:none"
         id="path138" /><path
         d="m 2907.1,1901.46 c -2.79,-336.91 -278.28,-607.91 -615.21,-605.15 -337.04,2.85 -607.91,278.39 -605.14,615.32 2.83,336.87 278.28,607.8 615.17,605.03 336.96,-2.78 607.99,-278.35 605.18,-615.2"
         style="fill:#ffcf03;fill-opacity:1;fill-rule:nonzero;stroke:none"
         id="path140" /><path
         d="m 2147.21,876.5 -203.26,843.83 702.93,-5.84 -210.02,-840.369 -35.77,8.981 198.53,794.978 -608.83,5.03 192.16,-798.02 -35.74,-8.59"
         style="fill:#464f72;fill-opacity:1;fill-rule:nonzero;stroke:none"
         id="path142" /><path
         d="m 2760.78,278.5 -932.05,7.699 5.02,604.34 932.03,-7.719 -5,-604.32"
         style="fill:#64b4d7;fill-opacity:1;fill-rule:nonzero;stroke:none"
         id="path144" /><path
         d="m 2849.21,741.629 c -0.24,-26.988 -22.31,-48.77 -49.49,-48.508 l -1025.76,8.488 c -26.98,0.211 -48.73,22.332 -48.59,49.403 v 0 c 0.24,27.047 22.41,48.859 49.38,48.617 l 1025.75,-8.57 c 27.15,-0.239 48.92,-22.34 48.71,-49.43 v 0"
         style="fill:#c1e4fa;fill-opacity:1;fill-rule:nonzero;stroke:none"
         id="path146" /><path
         d="m 2848.03,601.129 c -0.27,-26.957 -22.32,-48.731 -49.52,-48.52 l -1025.66,8.52 c -27.09,0.223 -48.85,22.301 -48.62,49.363 v 0 c 0.27,27.078 22.3,48.75 49.4,48.59 l 1025.81,-8.531 c 27.12,-0.25 48.8,-22.281 48.59,-49.422 v 0"
         style="fill:#c1e4fa;fill-opacity:1;fill-rule:nonzero;stroke:none"
         id="path148" /><path
         d="m 2846.86,460.781 c -0.17,-27.121 -22.35,-48.789 -49.46,-48.582 l -1025.74,8.481 c -27.06,0.211 -48.8,22.351 -48.53,49.429 v 0 c 0.2,26.993 22.32,48.801 49.39,48.582 l 1025.64,-8.472 c 27.21,-0.188 48.91,-22.418 48.7,-49.438 v 0"
         style="fill:#c1e4fa;fill-opacity:1;fill-rule:nonzero;stroke:none"
         id="path150" /><path
         d="m 2653.2,279.43 c -0.41,-39.75 -32.83,-71.66 -72.35,-71.379 l -578.74,4.789 c -39.54,0.371 -71.45,32.871 -71.18,72.539 v 0 c 0.32,39.562 32.85,71.453 72.38,71.152 l 578.68,-4.832 c 39.58,-0.328 71.49,-32.679 71.21,-72.269 v 0"
         style="fill:#64b4d7;fill-opacity:1;fill-rule:nonzero;stroke:none"
         id="path152" /><path
         d="m 2850.44,882.129 c -0.29,-26.949 -22.39,-48.738 -49.55,-48.559 l -1025.7,8.52 c -27.1,0.219 -48.76,22.371 -48.57,49.351 v 0 c 0.19,27.141 22.24,48.879 49.37,48.61 l 1025.71,-8.512 c 27.2,-0.199 48.89,-22.269 48.74,-49.41 v 0"
         style="fill:#c1e4fa;fill-opacity:1;fill-rule:nonzero;stroke:none"
         id="path154" /><path
         d="m 4131.04,1106.16 h -306.87 v -11.86 h 306.87 v 11.86"
         style="fill:#27355c;fill-opacity:1;fill-rule:nonzero;stroke:none"
         id="path156" /><path
         d="m 4123.56,1145.61 h -177.11 v -11.86 h 177.11 v 11.86"
         style="fill:#27355c;fill-opacity:1;fill-rule:nonzero;stroke:none"
         id="path158" /><path
         d="m 650.844,1367.4 c 8.379,10.81 42.801,32.99 77.051,14.62 45.796,-24.6 104.324,-112.96 175.988,-110.62 71.953,2.42 94.512,45.28 113.487,71.95 18.92,26.78 13.87,46.32 26.66,60.62 12.77,14.4 29.11,-1.5 9.07,-51.66 -9.56,-24.03 -42.78,-148.22 -127.717,-166.85 -111.301,-24.44 -323.727,117.46 -274.539,181.94"
         style="fill:#fbc6b4;fill-opacity:1;fill-rule:nonzero;stroke:none"
         id="path160" /><path
         d="m 661.988,1392.02 c 0,0 -42.824,-37.53 11.266,-102.81 54.101,-65.26 86.684,-86.22 86.684,-86.22 0,0 51.218,21.31 93.05,97.56 0,0 -138.343,152.98 -191,91.47"
         style="fill:#eda503;fill-opacity:1;fill-rule:nonzero;stroke:none"
         id="path162" /><path
         d="m 488.598,1261.48 c 31.769,-117.38 14.234,-199.88 0,-244.58 33.14,-10.66 13.406,-28.4 12.511,-30.638 -46.851,-97.211 244.325,-39.614 295.485,39.088 17.601,27.06 0.75,61.42 3.918,113.4 1.129,11.66 1.414,23.5 1.558,35.08 1.41,53.23 -2.172,105.18 -9.644,140.56 -22.871,107.25 -123.758,112.49 -185.129,103.92 -27.887,-3.84 -64.234,-8.56 -92.184,-24.99 l -0.148,-0.22 c -32.527,-19.71 -49.977,-44.36 -26.367,-131.62"
         style="fill:#ffb502;fill-opacity:1;fill-rule:nonzero;stroke:none"
         id="path164" /><path
         d="m 560.762,1319.04 c 12.582,-53.28 57.551,-215.89 -72.164,-297.21 0,0 214.82,-157.299 337.711,-21.19 0,0 -24.711,232.11 -59.067,324.29 -9.859,26.49 -36.035,107.82 -83.203,96.05 0,0 82.875,-130.54 45.063,-165.01 -37.797,-34.5 -73.504,-5.5 -90.2,20.47 -26.75,41.79 -55.285,138.4 -55.285,138.4 l -52.195,-7.85 c 0,0 18.629,-42.54 29.34,-87.95"
         style="fill:#1c2745;fill-opacity:1;fill-rule:nonzero;stroke:none"
         id="path166" /><path
         d="m 602.102,1496.07 c 0,0 27.543,-43.23 -1.754,-72.05 -30.071,-29.52 108.242,-81.66 101.531,-55.09 -8.563,34.28 -29.004,52.61 -17.156,94.75 l -82.621,32.39"
         style="fill:#f7b2a0;fill-opacity:1;fill-rule:nonzero;stroke:none"
         id="path168" /><path
         d="m 664.27,1593.03 c 33.273,-24.12 80.808,-142.69 53.257,-173.72 -12.199,-13.53 -69.632,-7.34 -111.765,42.05 -17.383,20.15 -40.649,59.44 -23.633,104 7.766,20.26 43.551,55.67 82.141,27.67"
         style="fill:#fbc6b4;fill-opacity:1;fill-rule:nonzero;stroke:none"
         id="path170" /><path
         d="m 696.383,1582.09 c 8.488,-14.56 7.078,-18.32 -38.379,-31.34 -45.352,-13.04 -53.758,-10.96 -47.617,-21.34 18.011,-30.76 -15.844,-28.63 6.14,-65.08 21.828,-36.59 -20.066,-18.09 -41.207,11.4 -4.168,5.97 -27.679,34.55 -11.328,85.57 19.004,59.61 100.875,74.18 132.391,20.79"
         style="fill:#1d1b3a;fill-opacity:1;fill-rule:nonzero;stroke:none"
         id="path172" /><path
         d="m 604.273,1502.41 c 0,0 140.645,39.72 134.102,83.58 -4.039,27.01 -85.684,16.41 -85.684,16.41 l -48.418,-99.99"
         style="fill:#eda503;fill-opacity:1;fill-rule:nonzero;stroke:none"
         id="path174" /><path
         d="m 696.383,1582.09 c -11.262,-42.3 -44.453,-65.57 -130.641,-93.1 0,0 -46.664,83.6 13.813,127.88 53.367,38.97 123.984,-7.7 116.828,-34.78"
         style="fill:#ffb502;fill-opacity:1;fill-rule:nonzero;stroke:none"
         id="path176" /><path
         d="m 507.313,1399.41 c 12.492,4.07 43.07,1.14 59.707,-31.97 22.355,-44.3 19.757,-145.39 77.078,-182.72 57.504,-37.43 98.597,-16.3 128.058,-5.84 29.414,10.56 36.141,28.52 53.942,32.78 17.89,4.26 22,-17.17 -21.16,-45.36 -20.645,-13.48 -114.508,-92.43 -191.086,-60.53 -100.372,41.76 -180.184,270.25 -106.539,293.64"
         style="fill:#fbc6b4;fill-opacity:1;fill-rule:nonzero;stroke:none"
         id="path178" /><path
         d="m 518.246,1405.78 c 0,0 -54.086,-5.97 -47.426,-86.65 6.575,-80.51 20.563,-114.7 20.563,-114.7 0,0 51.703,-11.38 126.101,25.3 0,0 -24.48,195.26 -99.238,176.05"
         style="fill:#eda503;fill-opacity:1;fill-rule:nonzero;stroke:none"
         id="path180" /><path
         d="M 413.391,569.629 C 384.238,455.551 350.051,211.98 406.074,210.59 c 55.946,-1.258 87.219,15.68 54.973,24.711 -32.285,9.121 -33.59,12.629 -32.602,21.691 13.883,117.649 197.828,301.098 213.453,440.938 5.254,47.761 8.899,91.429 11.372,129.761 20.918,-102.41 5.523,-211.132 7.351,-247.082 5.926,-127.839 33.25,-369.519 94.52,-370.019 65.269,-0.461 97.332,17.629 55.629,26.242 -36.063,7.629 -34.547,9.309 -33.883,18.219 8.754,129.097 71.355,367.781 83.363,521.129 13.855,177 -421.484,-106.809 -446.859,-206.551"
         style="fill:#fbc6b4;fill-opacity:1;fill-rule:nonzero;stroke:none"
         id="path182" /><path
         d="m 720.766,239.68 c 0,0 48.668,-19.309 78.754,0 0,0 54.855,-7.41 20.414,-20.739 -34.606,-13.421 -101.219,-24.449 -99.168,20.739"
         style="fill:#ffb502;fill-opacity:1;fill-rule:nonzero;stroke:none"
         id="path184" /><path
         d="m 382.305,235.301 c 0,0 48.718,-19.211 78.742,0 0,0 54.891,-7.481 20.285,-20.762 -34.539,-13.359 -101.059,-24.469 -99.027,20.762"
         style="fill:#ffb502;fill-opacity:1;fill-rule:nonzero;stroke:none"
         id="path186" /><path
         d="M 816.934,1076.91 C 705.371,1002.46 549.34,1010.05 488.598,1021.83 472.188,889.102 372.457,391.102 361.207,322.762 c 48.969,-16.242 65.254,-19.66 79.422,-19.66 236.519,305.019 209.344,435.828 211.851,474.168 8.922,-44.278 -20.289,-261.309 30.774,-474.168 17.113,-11.063 68.957,-25.422 106.062,0 1.86,13.597 71.27,258.058 69.754,449.41 -1.039,130.449 -22.843,219.968 -42.136,324.398"
         style="fill:#1c2745;fill-opacity:1;fill-rule:nonzero;stroke:none"
         id="path188" /><path
         d="m 496.391,909.398 c 69.379,22 75.488,90.59 75.562,91.252 l -9.211,0.7 c -0.179,-2.491 -5.801,-63.088 -69.164,-83.202 l 2.813,-8.75"
         style="fill:#ffffff;fill-opacity:1;fill-rule:nonzero;stroke:none"
         id="path190" /><path
         d="m 821.094,926.48 2.828,8.801 c -63.57,20.129 -69.133,82.559 -69.192,83.199 l -9.199,-0.7 c 0.071,-0.75 6.184,-69.319 75.563,-91.3"
         style="fill:#ffffff;fill-opacity:1;fill-rule:nonzero;stroke:none"
         id="path192" /><path
         d="m 3232.89,1449.86 c -0.88,12.98 -16.2,48.74 -52.97,52.45 -49.15,5.01 -142.21,-33.49 -197.41,6.45 -55.39,40.17 -50.39,85.91 -51.15,117.02 -0.65,31.19 13.7,43.92 11.24,61.93 -2.39,18.16 -23.74,14.33 -34.63,-35.92 -5.24,-23.97 -45.1,-139.47 11.93,-199.29 74.69,-78.42 317.43,-79.58 312.99,-2.64"
         style="fill:#fbc6b4;fill-opacity:1;fill-rule:nonzero;stroke:none"
         id="path194" /><path
         d="m 3237.19,1475.19 c 0,0 13.75,-52.37 -63.55,-75.03 -77.28,-22.64 -114.12,-21.78 -114.12,-21.78 0,0 -29.01,43.96 -21.46,126.31 0,0 190.36,46.91 199.13,-29.5"
         style="fill:#eda503;fill-opacity:1;fill-rule:nonzero;stroke:none"
         id="path196" /><path
         d="m 3358.36,1538.46 -0.17,0.23 c -29.43,8.96 -64.09,5.29 -90.7,2.67 -58.64,-5.61 -150.77,-32.7 -148.22,-136.92 0.92,-34.33 9.09,-83.17 22.16,-132.05 2.66,-10.69 5.55,-21.56 9.18,-32.06 14.37,-47.4 6.38,-82.83 28.65,-104 64.66,-61.42 366.98,-63.01 302.23,16.54 -1.33,1.89 -17.74,29.21 1.28,42.37 -23.01,38.21 -31.48,87.78 -45.19,120.58 -4.03,9.83 -7.47,19.83 -10.35,30.33 -6.92,24.04 -10.28,50.38 -9.53,82.06 2.03,70.41 -24.9,99.19 -59.34,110.25"
         style="fill:#ffb502;fill-opacity:1;fill-rule:nonzero;stroke:none"
         id="path198" /><path
         d="m 3131.24,778.129 c 67.86,-47.789 172.35,-95.277 212.49,-134.348 6.39,-6.222 7.75,-9.39 -8.35,-34.383 -16.3,-24.839 15.38,-19.707 52.28,12.622 36.89,32.402 -136.96,194.281 -227.19,262.722 -78.89,59.879 -108.16,-51.152 -29.23,-106.613"
         style="fill:#fbc6b4;fill-opacity:1;fill-rule:nonzero;stroke:none"
         id="path200" /><path
         d="m 3388.43,653.641 c 0,0 -20.93,-41.731 -53.05,-44.243 0,0 -32.51,-36.316 -1.03,-26.828 31.55,9.578 83.39,38.61 54.08,71.071"
         style="fill:#ffb502;fill-opacity:1;fill-rule:nonzero;stroke:none"
         id="path202" /><path
         d="m 3332.39,1459.88 c 0.18,-52.01 -9.12,-133.89 118.1,-171.45 0,0 -149.62,-280.12 -293.24,-181.49 0,0 -28.4,219.98 -17.03,312.86 3.28,26.65 9.13,99.13 63.95,107.39 0,0 -56.01,-139.21 -13.47,-162.78 42.59,-23.52 69.19,11.17 78.86,38.89 15.5,44.5 50.27,140.98 50.27,140.98 l 33.94,-4.44 c 0,0 -21.46,-35.66 -21.38,-79.96"
         style="fill:#1c2745;fill-opacity:1;fill-rule:nonzero;stroke:none"
         id="path204" /><path
         d="m 3297.7,1622.01 c 0,0 -25.1,-41.74 3.39,-68.38 29.34,-27.33 -100.8,-80.25 -95.05,-54.84 7.28,32.75 26.28,50.68 13.97,90.46 l 77.69,32.76"
         style="fill:#f7b2a0;fill-opacity:1;fill-rule:nonzero;stroke:none"
         id="path206" /><path
         d="m 3236.25,1712.61 c -31.03,-23.72 -73.27,-137.56 -46.34,-166.36 11.91,-12.52 66.31,-5.29 105.17,42.75 16.01,19.54 37.15,57.44 19.91,99.37 -7.9,19.01 -42.77,51.81 -78.74,24.24"
         style="fill:#fbc6b4;fill-opacity:1;fill-rule:nonzero;stroke:none"
         id="path208" /><path
         d="m 3206.04,1701.44 c -7.74,-14.04 -6.3,-17.57 37.2,-28.8 43.42,-11.38 51.38,-9.14 45.77,-19.15 -16.38,-29.62 15.73,-26.77 -4.22,-61.97 -19.86,-35.29 19.48,-16.7 38.85,11.87 3.8,5.75 25.4,33.52 8.64,81.54 -19.5,56.17 -97.65,68 -126.24,16.51"
         style="fill:#1d1b3a;fill-opacity:1;fill-rule:nonzero;stroke:none"
         id="path210" /><path
         d="m 3265.72,1636.29 c 0,0 -104.82,25.96 -99.7,67.87 3.18,25.76 81.01,17.64 81.01,17.64 l 18.69,-85.51"
         style="fill:#eda503;fill-opacity:1;fill-rule:nonzero;stroke:none"
         id="path212" /><path
         d="m 3201.92,1695.21 c 11.76,-39.99 41.39,-57.84 130.47,-79.02 0,0 42.26,80.62 -16.25,121.17 -51.65,35.72 -121.7,-16.65 -114.22,-42.15"
         style="fill:#ffb502;fill-opacity:1;fill-rule:nonzero;stroke:none"
         id="path214" /><path
         d="m 3175.74,1160.71 c 0,0 -218.87,-126.98 -244.45,-203.128 -25.53,-76.141 383.3,-317.891 383.3,-317.891 0,0 47.84,47.649 25.76,91.129 -82.78,163.051 -113.06,215.239 -113.06,215.239 l 202.88,168.921 -254.43,45.73"
         style="fill:#1c2745;fill-opacity:1;fill-rule:nonzero;stroke:none"
         id="path216" /><path
         d="m 3380.71,693.84 c 25.02,-79.141 79.26,-180.301 87.5,-235.66 1.3,-8.84 0.49,-12.211 -27.52,-22.301 -27.98,-9.899 0.29,-25 49.25,-21.699 49.01,3.41 8.95,237.519 -21.3,346.711 -26.37,95.418 -116.97,24.871 -87.93,-67.051"
         style="fill:#fbc6b4;fill-opacity:1;fill-rule:nonzero;stroke:none"
         id="path218" /><path
         d="m 3509.75,438.879 c 0,0 -42,-20.559 -69.06,-3 0,0 -47.85,-9.199 -17.07,-20.68 30.88,-11.57 89.75,-19.898 86.13,23.68"
         style="fill:#ffb502;fill-opacity:1;fill-rule:nonzero;stroke:none"
         id="path220" /><path
         d="m 3450.49,1288.43 c 0,0 45.19,-92.16 72.86,-224.47 33.32,-159.499 2.91,-551.062 2.91,-551.062 0,0 6.92,-12.539 -90.67,-0.316 -26.3,3.359 -147.57,536.688 -147.57,536.688 l 32.43,149.3 130.04,89.86"
         style="fill:#1c2745;fill-opacity:1;fill-rule:nonzero;stroke:none"
         id="path222" /><path
         d="m 3494.71,507.059 c 41.24,273.8 -66.85,699.361 -67.94,703.651 l -5.27,-1.36 c 1.11,-4.26 108.92,-428.748 67.83,-701.491 l 5.38,-0.8"
         style="fill:#ffffff;fill-opacity:1;fill-rule:nonzero;stroke:none"
         id="path224" /><path
         d="m 3402,1500.22 c -4.9,11.48 -26.01,31.63 -60.14,22.97 -45.73,-11.53 -116.67,-76.28 -179.18,-58.38 -62.7,18 -73.09,60.66 -83.9,88.33 -10.7,27.7 -2.01,43.76 -10.05,59.13 -8.07,15.55 -26.01,5.15 -19.4,-43.4 3.16,-23.19 4.87,-139.8 75.46,-174.93 92.49,-46.07 306.25,38.85 277.21,106.28"
         style="fill:#fbc6b4;fill-opacity:1;fill-rule:nonzero;stroke:none"
         id="path226" /><path
         d="m 3399.76,1512 c 0,0 29.37,-42.54 -32.71,-87.98 -61.92,-45.35 -95.2,-56.65 -95.2,-56.65 0,0 -40.32,30.08 -60.27,106.35 0,0 155.43,103.96 188.18,38.28"
         style="fill:#eda503;fill-opacity:1;fill-rule:nonzero;stroke:none"
         id="path228" /><path
         d="m 3361.78,224.832 20.08,8.117 -368.33,908.071 h 215.69 l 371.65,-916.188 20.12,8.117 -377.15,929.761 h -262.51 l 380.45,-937.878"
         style="fill:#464f72;fill-opacity:1;fill-rule:nonzero;stroke:none"
         id="path230" /><path
         d="M 3162.99,732.82 H 3402.1 V 754.5 H 3162.99 V 732.82"
         style="fill:#464f72;fill-opacity:1;fill-rule:nonzero;stroke:none"
         id="path232" /><path
         d="M 3210.88,620.75 H 3450 v 21.68 h -239.12 v -21.68"
         style="fill:#464f72;fill-opacity:1;fill-rule:nonzero;stroke:none"
         id="path234" /><path
         d="m 3252.27,507.539 h 239.12 v 21.703 h -239.12 v -21.703"
         style="fill:#464f72;fill-opacity:1;fill-rule:nonzero;stroke:none"
         id="path236" /><path
         d="m 3304.16,392.148 h 239.11 v 21.684 h -239.11 v -21.684"
         style="fill:#464f72;fill-opacity:1;fill-rule:nonzero;stroke:none"
         id="path238" /><path
         d="m 2865.75,225.07 248.17,660.828 -20.35,7.633 -248.14,-660.832 20.32,-7.629"
         style="fill:#464f72;fill-opacity:1;fill-rule:nonzero;stroke:none"
         id="path240" /><path
         d="m 3113.92,207.77 248.11,660.859 -20.34,7.609 -248.12,-660.84 20.35,-7.628"
         style="fill:#464f72;fill-opacity:1;fill-rule:nonzero;stroke:none"
         id="path242" /><path
         d="m 2896.04,1659.34 h -474.52 v 76.36 h 474.52 v -76.36"
         style="fill:#64b4d7;fill-opacity:1;fill-rule:nonzero;stroke:none"
         id="path244" /><path
         d="m 2519.21,1659.34 h -97.69 v 76.36 h 97.69 v -76.36"
         style="fill:#4ca1bf;fill-opacity:1;fill-rule:nonzero;stroke:none"
         id="path246" /><path
         d="M 2964.07,1621.36 H 2346.5 l 20.92,75.96 h 575.71 l 20.94,-75.96"
         style="fill:#4ca1bf;fill-opacity:1;fill-rule:nonzero;stroke:none"
         id="path248" /><path
         d="m 2964.07,1081.52 h -455.33 v 539.84 h 455.33 v -539.84"
         style="fill:#c1e4fa;fill-opacity:1;fill-rule:nonzero;stroke:none"
         id="path250" /><path
         d="m 2346.5,1081.52 h 203.26 v 539.84 H 2346.5 v -539.84"
         style="fill:#64b4d7;fill-opacity:1;fill-rule:nonzero;stroke:none"
         id="path252" /><path
         d="m 2549.76,1621.36 -15.71,75.96 h -166.63 l -20.92,-75.96 h 203.26"
         style="fill:#3c93aa;fill-opacity:1;fill-rule:nonzero;stroke:none"
         id="path254" /><path
         d="m 2519.21,1468.76 h -143.06 v 85.53 h 143.06 v -85.53"
         style="fill:#848fb7;fill-opacity:1;fill-rule:nonzero;stroke:none"
         id="path256" /><path
         d="m 2501.54,1532.9 h -107.72 v 10.48 h 107.72 v -10.48"
         style="fill:#464f72;fill-opacity:1;fill-rule:nonzero;stroke:none"
         id="path258" /><path
         d="m 2501.54,1514.58 h -107.72 v 10.48 h 107.72 v -10.48"
         style="fill:#464f72;fill-opacity:1;fill-rule:nonzero;stroke:none"
         id="path260" /><path
         d="m 2501.54,1495.83 h -107.72 v 10.49 h 107.72 v -10.49"
         style="fill:#464f72;fill-opacity:1;fill-rule:nonzero;stroke:none"
         id="path262" /><path
         d="M 2501.54,1477.49 H 2393.82 V 1488 h 107.72 v -10.51"
         style="fill:#464f72;fill-opacity:1;fill-rule:nonzero;stroke:none"
         id="path264" /><path
         d="m 2885.77,1466.39 c 0,-67.96 -55.09,-123.04 -123.04,-123.04 -67.94,0 -123.04,55.08 -123.04,123.04 0,67.93 55.1,123.02 123.04,123.02 67.95,0 123.04,-55.09 123.04,-123.02"
         style="fill:#3c93aa;fill-opacity:1;fill-rule:nonzero;stroke:none"
         id="path266" /><path
         d="m 2868.66,1466.39 c 0,-58.5 -47.43,-105.92 -105.93,-105.92 -58.48,0 -105.92,47.42 -105.92,105.92 0,58.49 47.44,105.91 105.92,105.91 58.5,0 105.93,-47.42 105.93,-105.91"
         style="fill:#64b4d7;fill-opacity:1;fill-rule:nonzero;stroke:none"
         id="path268" /><path
         d="M 2896.04,1295.56 H 2639.2 v 29.26 h 256.84 v -29.26"
         style="fill:#3c93aa;fill-opacity:1;fill-rule:nonzero;stroke:none"
         id="path270" /><path
         d="m 2845.57,1113.5 h -155.91 l 77.97,155.89 z"
         style="fill:#6d76a1;fill-opacity:1;fill-rule:nonzero;stroke:none"
         id="path272" /><path
         d="m 2704.76,1124.05 62.87,122.45 62.86,-122.45 z"
         style="fill:#ffcf03;fill-opacity:1;fill-rule:nonzero;stroke:none"
         id="path274" /><path
         d="m 2754.83,1134.21 -1.19,55.29 14.26,-19.25 3.88,48.67 0.23,-63.42 -11.52,15.99 -5.66,-37.28"
         style="fill:#6d76a1;fill-opacity:1;fill-rule:nonzero;stroke:none"
         id="path276" /><path
         d="m 4091.36,1555.86 c 0,-15.63 12.71,-28.35 28.34,-28.35 15.62,0 28.36,12.72 28.36,28.35 0,15.62 -12.74,28.32 -28.36,28.32 -15.63,0 -28.34,-12.7 -28.34,-28.32 z m -22.82,0 c 0,28.19 22.92,51.13 51.16,51.13 28.22,0 51.18,-22.94 51.18,-51.13 0,-28.2 -22.96,-51.17 -51.18,-51.17 -28.24,0 -51.16,22.97 -51.16,51.17"
         style="fill:#64b4d7;fill-opacity:1;fill-rule:nonzero;stroke:none"
         id="path278" /><path
         d="m 0,425.969 c 0,-22.258 18.1094,-40.321 40.3594,-40.321 22.2578,0 40.2461,18.063 40.2461,40.321 0,22.261 -17.9883,40.332 -40.2461,40.332 C 18.1094,466.301 0,448.23 0,425.969"
         style="fill:#c1e4fa;fill-opacity:1;fill-rule:nonzero;stroke:none"
         id="path280" /><path
         d="m 53.9258,914.148 c -4.1953,5.563 -5.9219,24.543 -12.9063,24.672 -6.9336,0.102 -8.7773,-19.34 -13.7929,-24.14 C 22.207,909.852 2.25,908.75 2.53516,901.77 c 0.33203,-6.961 19.98044,-8.239 24.17574,-13.821 4.1329,-5.558 5.9063,-24.98 12.875,-24.648 6.9805,0.308 8.2579,19.937 13.8204,24.129 5.5625,4.179 25,5.91 24.6718,12.922 -0.3086,6.937 -19.9648,8.218 -24.1523,13.796"
         style="fill:#ffb502;fill-opacity:1;fill-rule:nonzero;stroke:none"
         id="path282" /><path
         d="m 4142.15,2240.21 -20.28,0.07 0.25,48.2 20.26,-0.07 -0.23,-48.2"
         style="fill:#1c2745;fill-opacity:1;fill-rule:nonzero;stroke:none"
         id="path284" /><path
         d="m 4141.77,2168.44 -20.26,0.1 0.24,48.19 20.28,-0.1 -0.26,-48.19"
         style="fill:#1c2745;fill-opacity:1;fill-rule:nonzero;stroke:none"
         id="path286" /><path
         d="m 4141.45,2096.68 -20.3,0.07 0.24,48.2 20.26,-0.07 -0.2,-48.2"
         style="fill:#1c2745;fill-opacity:1;fill-rule:nonzero;stroke:none"
         id="path288" /><path
         d="m 4141.05,2024.88 -20.28,0.12 0.26,48.18 20.27,-0.09 -0.25,-48.21"
         style="fill:#1c2745;fill-opacity:1;fill-rule:nonzero;stroke:none"
         id="path290" /><path
         d="m 4140.71,1953.11 -20.29,0.09 0.26,48.19 20.27,-0.09 -0.24,-48.19"
         style="fill:#1c2745;fill-opacity:1;fill-rule:nonzero;stroke:none"
         id="path292" /><path
         d="m 4140.35,1881.32 -20.29,0.13 0.23,48.17 20.27,-0.1 -0.21,-48.2"
         style="fill:#1c2745;fill-opacity:1;fill-rule:nonzero;stroke:none"
         id="path294" /><path
         d="m 4140,1809.58 -20.29,0.09 0.24,48.2 20.26,-0.12 -0.21,-48.17"
         style="fill:#1c2745;fill-opacity:1;fill-rule:nonzero;stroke:none"
         id="path296" /><path
         d="m 1484.35,1411.98 -150.1,154.63 -145.75,-154.53 -13.4,12.61 158.97,168.54 163.49,-168.43 -13.21,-12.82"
         style="fill:#464f72;fill-opacity:1;fill-rule:nonzero;stroke:none"
         id="path298" /><path
         d="m 1484.35,1147 -150.1,154.61 -145.75,-154.52 -13.4,12.62 158.97,168.52 163.49,-168.42 -13.21,-12.81"
         style="fill:#464f72;fill-opacity:1;fill-rule:nonzero;stroke:none"
         id="path300" /><path
         d="m 1484.35,855.512 -150.1,154.628 -145.75,-154.519 -13.4,12.617 158.97,168.522 163.49,-168.428 -13.21,-12.82"
         style="fill:#464f72;fill-opacity:1;fill-rule:nonzero;stroke:none"
         id="path302" /><path
         d="m 1424.17,226.441 h -169.82 l 38.22,1570.799 h 93.38 l 38.22,-1570.799"
         style="fill:#6d76a1;fill-opacity:1;fill-rule:nonzero;stroke:none"
         id="path304" /><path
         d="m 1381.71,273.898 h -84.9 l 19.1,1523.342 h 46.7 l 19.1,-1523.342"
         style="fill:#464f72;fill-opacity:1;fill-rule:nonzero;stroke:none"
         id="path306" /><path
         d="M 1533.6,206.219 H 1160.75 L 1199,292.27 h 296.34 l 38.26,-86.051"
         style="fill:#6d76a1;fill-opacity:1;fill-rule:nonzero;stroke:none"
         id="path308" /><path
         d="m 1424.17,1756.55 h -169.82 v 96.71 h 169.82 v -96.71"
         style="fill:#464f72;fill-opacity:1;fill-rule:nonzero;stroke:none"
         id="path310" /><path
         d="m 1641.96,1391.73 h -589.59 v 53.31 h 589.59 v -53.31"
         style="fill:#464f72;fill-opacity:1;fill-rule:nonzero;stroke:none"
         id="path312" /><path
         d="m 1641.96,835.262 h -589.59 v 53.32 h 589.59 v -53.32"
         style="fill:#464f72;fill-opacity:1;fill-rule:nonzero;stroke:none"
         id="path314" /><path
         d="M 1718.35,1126.75 H 949.926 v 53.31 h 768.424 v -53.31"
         style="fill:#464f72;fill-opacity:1;fill-rule:nonzero;stroke:none"
         id="path316" /><path
         d="m 1075.82,1314.92 h -23.45 v 130.12 h 23.45 v -130.12"
         style="fill:#6d76a1;fill-opacity:1;fill-rule:nonzero;stroke:none"
         id="path318" /><path
         d="m 1641.96,1314.92 h -23.44 v 130.12 h 23.44 v -130.12"
         style="fill:#6d76a1;fill-opacity:1;fill-rule:nonzero;stroke:none"
         id="path320" /><path
         d="m 1087.39,1281.24 h -44.72 v 86.13 h 44.72 v -86.13"
         style="fill:#64b4d7;fill-opacity:1;fill-rule:nonzero;stroke:none"
         id="path322" /><path
         d="m 973.867,1049.95 h -23.445 v 130.11 h 23.445 v -130.11"
         style="fill:#6d76a1;fill-opacity:1;fill-rule:nonzero;stroke:none"
         id="path324" /><path
         d="m 985.434,1016.24 h -44.715 v 86.12 h 44.715 v -86.12"
         style="fill:#64b4d7;fill-opacity:1;fill-rule:nonzero;stroke:none"
         id="path326" /><path
         d="m 1651.82,758.469 h -23.46 v 130.113 h 23.46 V 758.469"
         style="fill:#6d76a1;fill-opacity:1;fill-rule:nonzero;stroke:none"
         id="path328" /><path
         d="m 1663.39,724.781 h -44.73 v 86.117 h 44.73 v -86.117"
         style="fill:#64b4d7;fill-opacity:1;fill-rule:nonzero;stroke:none"
         id="path330" /><path
         d="m 1075.82,758.469 h -23.45 v 130.113 h 23.45 V 758.469"
         style="fill:#6d76a1;fill-opacity:1;fill-rule:nonzero;stroke:none"
         id="path332" /><path
         d="m 1087.39,724.781 h -44.72 v 86.117 h 44.72 v -86.117"
         style="fill:#64b4d7;fill-opacity:1;fill-rule:nonzero;stroke:none"
         id="path334" /><path
         d="m 1718.39,1049.95 h -23.43 v 130.11 h 23.43 v -130.11"
         style="fill:#6d76a1;fill-opacity:1;fill-rule:nonzero;stroke:none"
         id="path336" /><path
         d="m 1729.96,1016.24 h -44.72 v 86.12 h 44.72 v -86.12"
         style="fill:#64b4d7;fill-opacity:1;fill-rule:nonzero;stroke:none"
         id="path338" /><path
         d="m 1652.59,1281.24 h -44.72 v 86.13 h 44.72 v -86.13"
         style="fill:#64b4d7;fill-opacity:1;fill-rule:nonzero;stroke:none"
         id="path340" /></g></g></svg>
